<svg xmlns="http://www.w3.org/2000/svg" viewBox="0 0 22 28" width="22" height="28">
	<style>
		tspan { white-space:pre }
		.shp0 { fill: #ffffff } 
	</style>
	<g id="Check Out Stats">
		<g id="5">
			<g id="Icon">
				<path id="Forma 1" class="shp0" d="M20.09 0L1.91 0C0.86 0 0 0.78 0 1.75L0 26.76C0 27.26 0.22 27.67 0.6 27.87C0.99 28.07 1.48 28.04 1.96 27.78L10.01 23.43C10.54 23.14 11.46 23.14 11.99 23.43L20.04 27.78C20.31 27.93 20.59 28 20.85 28C21.04 28 21.23 27.96 21.4 27.87C21.78 27.67 22 27.26 22 26.76L22 1.75C22 0.78 21.14 0 20.09 0ZM21.04 26.76C21.04 26.97 20.98 27.08 20.92 27.11C20.87 27.14 20.73 27.13 20.53 27.03L12.48 22.67C12.06 22.45 11.53 22.34 11 22.34C10.47 22.34 9.94 22.45 9.52 22.67L1.47 27.03C1.27 27.13 1.13 27.14 1.08 27.11C1.02 27.08 0.96 26.97 0.96 26.76L0.96 1.75C0.96 1.27 1.39 0.87 1.91 0.87L1.91 1.75C1.91 1.99 2.13 2.19 2.39 2.19C2.66 2.19 2.87 1.99 2.87 1.75L2.87 0.87L19.13 0.87L19.13 1.75C19.13 1.99 19.34 2.19 19.61 2.19C19.87 2.19 20.09 1.99 20.09 1.75L20.09 0.87C20.61 0.87 21.04 1.27 21.04 1.75L21.04 26.76L21.04 26.76ZM2.39 3.06C2.13 3.06 1.91 3.26 1.91 3.5L1.91 4.37C1.91 4.62 2.13 4.81 2.39 4.81C2.66 4.81 2.87 4.62 2.87 4.37L2.87 3.5C2.87 3.26 2.66 3.06 2.39 3.06ZM2.39 5.69C2.13 5.69 1.91 5.88 1.91 6.12L1.91 24.94C1.91 25.18 2.13 25.37 2.39 25.37C2.66 25.37 2.87 25.18 2.87 24.94L2.87 6.12C2.87 5.88 2.66 5.69 2.39 5.69ZM19.61 3.06C19.34 3.06 19.13 3.26 19.13 3.5L19.13 4.37C19.13 4.62 19.34 4.81 19.61 4.81C19.87 4.81 20.09 4.62 20.09 4.37L20.09 3.5C20.09 3.26 19.87 3.06 19.61 3.06ZM19.61 5.69C19.34 5.69 19.13 5.88 19.13 6.12L19.13 24.94C19.13 25.18 19.34 25.37 19.61 25.37C19.87 25.37 20.09 25.18 20.09 24.94L20.09 6.12C20.09 5.88 19.87 5.69 19.61 5.69Z" />
			</g>
		</g>
	</g>
</svg>